<svg width="189" height="29" viewBox="0 0 189 29" fill="none" xmlns="http://www.w3.org/2000/svg">
<path fill-rule="evenodd" clip-rule="evenodd" d="M0 2.4912C0 1.1947 1.06219 0.148132 2.34307 0.148132H2.73358C3.23344 0.148132 3.65519 0.569884 3.65519 1.06974C3.65519 1.56959 3.24906 1.99135 2.73358 1.99135H2.35869C2.09314 1.99135 1.87445 2.21003 1.87445 2.47558V18.2522C1.87445 18.9552 2.2181 19.6112 2.78044 20.0017L8.47543 23.9939L12.344 21.296C12.3628 21.2805 12.3824 21.2656 12.4026 21.2514L14.3571 19.8921L18.9164 16.7126V5.3966H16.339V14.1441C16.339 14.4565 16.1828 14.7376 15.9328 14.9095L9.01298 19.6893C8.85678 19.7987 8.66933 19.8612 8.48189 19.8612C8.29444 19.8612 8.107 19.7987 7.95079 19.6893L5.49838 17.9711C5.32396 17.8483 5.20296 17.6775 5.14204 17.4895C5.10982 17.3959 5.09225 17.2953 5.09225 17.1901V1.19471C5.09225 0.694858 5.514 0.273106 6.01386 0.273106C6.51371 0.273106 6.93546 0.679238 6.93546 1.19471V16.7024L8.48189 17.7836L14.4645 13.6442V4.49064C14.4645 4.2123 14.5875 3.96128 14.7842 3.7917C14.9467 3.64428 15.1625 3.55339 15.4018 3.55339V3.5687L15.4166 3.56901H19.838C20.3378 3.56901 20.7596 3.97514 20.7596 4.49061V17.043C20.7997 17.2957 20.7322 17.5578 20.5714 17.7633C20.5154 17.8366 20.4477 17.9014 20.3691 17.9554L20.369 17.9554L20.317 17.9917L9.01296 25.875C8.85676 26 8.66931 26.0468 8.48186 26.0468C8.47923 26.0468 8.4766 26.0468 8.47397 26.0468C8.47141 26.0468 8.46885 26.0468 8.46628 26.0468C8.407 26.0468 8.34771 26.0406 8.28941 26.0286C8.14557 26.0006 8.01001 25.9402 7.89265 25.8454L1.70263 21.5325C0.64044 20.7984 0 19.5644 0 18.2679V2.4912ZM9.40356 1.06974C9.40356 0.569884 9.80969 0.148132 10.3252 0.148132H23.5088C24.8053 0.148132 25.8519 1.21032 25.8519 2.4912V18.2678C25.8519 19.5643 25.2114 20.7827 24.1493 21.5325L15.2144 27.7651C14.5271 28.2493 13.7304 28.4836 12.9338 28.4836C12.1371 28.4836 11.3405 28.2337 10.6532 27.7651L10.5439 27.687C10.1221 27.3902 10.0128 26.8122 10.3095 26.3905C10.6063 25.9687 11.1843 25.8594 11.606 26.1562L11.7154 26.2343C12.4495 26.7341 13.418 26.7341 14.1522 26.2343L23.0871 20.0017C23.6494 19.5956 23.9931 18.9395 23.9931 18.2522V2.47558C23.9931 2.21003 23.7744 1.99135 23.5088 1.99135H11.2468V13.0819C11.2468 13.5817 10.8406 14.0035 10.3252 14.0035C9.82531 14.0035 9.40356 13.5973 9.40356 13.0819V1.06974Z" fill="white"/>
<path d="M50.5057 17.7884C50.435 16.6798 50.3642 15.5713 50.2935 14.4391C50.2227 13.3306 50.1284 12.2456 50.0104 11.2313C49.9161 10.2171 49.7981 9.27366 49.6802 8.44813L49.6566 8.30661H46.7555L46.7083 8.40095C46.496 8.80193 46.2366 9.29724 45.9299 9.86332C45.6469 10.4294 45.3403 11.0662 45.0337 11.7502C44.727 12.4107 44.3968 13.1183 44.0902 13.8259L43.3826 15.4533L42.675 13.8259C42.3684 13.1183 42.0382 12.4107 41.7315 11.7502C41.4249 11.0662 41.1183 10.4294 40.8352 9.86332C40.5522 9.27366 40.2928 8.77834 40.0569 8.40095L40.0097 8.30661H37.0142L36.9906 8.44813C36.8727 9.27366 36.7548 10.2171 36.6604 11.2313C36.5661 12.2456 36.4717 13.3306 36.3774 14.4391C36.3066 15.5477 36.2123 16.6563 36.1651 17.7884C36.0943 18.897 36.0472 19.9584 36 20.949V21.1377H39.1606V20.9726C39.2078 19.7697 39.2549 18.4253 39.3021 17.0101C39.3493 15.8071 39.4201 14.6042 39.5144 13.3777C39.6559 13.7079 39.821 14.0617 39.9861 14.4155C40.2456 15.0288 40.5286 15.642 40.7881 16.2553C41.0475 16.8685 41.307 17.4582 41.5664 18.0007C41.8023 18.5668 42.0146 19.0385 42.2033 19.4395L42.2504 19.5338H44.4912L44.5383 19.4395C44.7034 19.0385 44.9157 18.5668 45.1752 18.0007C45.411 17.4346 45.6705 16.8685 45.9535 16.2553C46.213 15.642 46.496 15.0288 46.7555 14.4155C46.9206 14.0381 47.0621 13.7079 47.2272 13.3777C47.3216 14.6042 47.3923 15.8071 47.4395 17.0101C47.5102 18.4253 47.5574 19.7697 47.581 20.9726V21.1377H50.7416V20.949C50.6237 19.9584 50.5529 18.897 50.5057 17.7884Z" fill="white"/>
<path d="M60.0583 8.40095C59.6574 9.25007 59.2328 10.1228 58.7611 10.9483C58.3365 11.7031 57.8884 12.4814 57.4402 13.2362C56.9921 12.4814 56.5439 11.7031 56.143 10.9483C55.6948 10.0992 55.2703 9.25007 54.8693 8.40095L54.8221 8.30661H51.119L51.2605 8.56606C51.9681 9.9105 52.6993 11.2313 53.4541 12.505C54.2089 13.7551 54.9872 15.0288 55.8127 16.2789V21.1377H59.0441V16.2553C59.8696 15.0052 60.648 13.7315 61.4028 12.505C62.1575 11.2549 62.8887 9.93408 63.5727 8.58965L63.7142 8.33019H60.1527L60.0583 8.40095Z" fill="white"/>
<path d="M77.2766 9.15576C76.2388 8.49534 74.7292 8.14154 72.7951 8.14154C72.2762 8.14154 71.6394 8.16513 70.9318 8.2123C70.2242 8.25947 69.5638 8.35382 68.9269 8.47175L68.7854 8.49534V21.0906H72.0168V16.9157H72.7479C74.682 16.9157 76.2152 16.562 77.2766 15.8779C78.3616 15.1703 78.904 14.0382 78.904 12.4815C78.8805 10.9719 78.338 9.83977 77.2766 9.15576ZM74.9179 13.8259C74.4462 14.0854 73.715 14.2033 72.7479 14.2033H72.0168V10.9483C72.1347 10.9483 72.2526 10.9248 72.3706 10.9248C72.9602 10.9012 73.5971 10.9012 74.0924 10.9955C74.4226 11.0427 74.682 11.137 74.9179 11.255C75.1302 11.3729 75.2953 11.538 75.4132 11.7267C75.5312 11.939 75.5783 12.1984 75.5783 12.5051C75.5783 13.1655 75.3425 13.59 74.9179 13.8259Z" fill="white"/>
<path d="M90.7209 19.4631C90.4614 18.9914 90.202 18.5196 89.9189 18.0951C89.6359 17.6705 89.3528 17.246 89.0698 16.8214C88.8339 16.4912 88.6217 16.1846 88.4094 15.9251C89.117 15.6185 89.6595 15.1939 90.0368 14.675C90.4614 14.1089 90.6973 13.3542 90.6973 12.4343C90.6973 10.9719 90.1548 9.88695 89.0934 9.17935C88.0556 8.49534 86.546 8.14154 84.5883 8.14154C84.0694 8.14154 83.4562 8.16513 82.7722 8.2123C82.1118 8.25947 81.4513 8.35382 80.8145 8.47175L80.673 8.49534V21.0906H83.9043V16.5384H85.0601C85.2959 16.7978 85.5082 17.1044 85.7441 17.4346C85.98 17.7884 86.2394 18.1658 86.4989 18.5432C86.7583 18.9206 86.9942 19.3452 87.23 19.7697L87.9848 21.0906H91.57L91.452 20.8311C91.2162 20.4066 90.9803 19.9348 90.7209 19.4631ZM87.3716 12.4107C87.3716 12.9768 87.1829 13.3778 86.7583 13.6136C86.3102 13.8495 85.579 13.991 84.5176 13.991H83.8807V10.9483C83.9751 10.9483 84.093 10.9248 84.1874 10.9248C84.3525 10.9248 84.5412 10.9012 84.7299 10.9012C85.6262 10.9012 86.2866 11.0191 86.7347 11.255C87.1593 11.4908 87.3716 11.8682 87.3716 12.4107Z" fill="white"/>
<path d="M96.1694 8.30661H92.938V21.1141H96.1694V8.30661Z" fill="white"/>
<path d="M110.769 8.54248L110.864 8.30661H107.42L107.373 8.42454C107.137 9.15573 106.854 9.93408 106.571 10.7596C106.288 11.5851 105.981 12.4107 105.675 13.2362C105.368 14.0617 105.085 14.8637 104.802 15.6184C104.59 16.2081 104.377 16.727 104.165 17.1987C103.953 16.727 103.741 16.2081 103.528 15.6184L102.656 13.2362C102.349 12.4107 102.066 11.5851 101.759 10.7596C101.476 9.93408 101.193 9.15573 100.957 8.42454L100.91 8.30661H97.3722L97.4429 8.54248C97.7024 9.32083 98.0326 10.2407 98.41 11.2549C98.7874 12.2692 99.1884 13.3305 99.6365 14.4155C100.085 15.5241 100.556 16.6327 101.052 17.7648C101.547 18.897 102.042 19.982 102.561 21.0198L102.608 21.1141H105.58L105.627 21.0198C106.123 19.982 106.642 18.8734 107.137 17.7648C107.632 16.6327 108.104 15.5241 108.529 14.4155C108.977 13.307 109.378 12.2456 109.755 11.2549C110.156 10.2407 110.486 9.32083 110.769 8.54248Z" fill="white"/>
<path d="M121.501 17.1516C121.077 16.0194 120.652 14.9345 120.228 13.9202C119.827 12.9296 119.402 11.9626 119.001 11.0427C118.6 10.1464 118.176 9.2501 117.751 8.3774L117.704 8.28305H114.756L114.708 8.3774C114.284 9.2501 113.859 10.1464 113.458 11.0427C113.057 11.939 112.656 12.906 112.232 13.9202C111.831 14.9109 111.406 15.9959 110.958 17.1516C110.534 18.2838 110.062 19.5338 109.59 20.8783L109.496 21.1141H112.869L112.916 20.9962C113.057 20.5717 113.199 20.1235 113.364 19.6754L113.812 18.4253H118.553L119.001 19.6754C119.166 20.1235 119.308 20.5717 119.449 20.9962L119.496 21.1141H122.94L122.846 20.8783C122.374 19.5574 121.926 18.3073 121.501 17.1516ZM116.053 12.1041C116.1 11.9861 116.147 11.8682 116.171 11.7739C116.218 11.8682 116.265 11.9861 116.289 12.1041C116.407 12.4107 116.548 12.7645 116.713 13.1891C116.878 13.59 117.043 14.0382 117.232 14.5335C117.397 14.9581 117.539 15.3826 117.704 15.8543H114.567C114.732 15.4062 114.897 14.9581 115.062 14.5571C115.251 14.0618 115.44 13.6136 115.581 13.2126C115.793 12.7645 115.911 12.4107 116.053 12.1041Z" fill="white"/>
<path d="M133.106 17.8592C132.941 17.9299 132.776 18.0007 132.563 18.0951C132.375 18.1658 132.162 18.2366 131.903 18.3073C131.644 18.3781 131.361 18.4253 131.03 18.4724C130.7 18.5196 130.346 18.5432 129.922 18.5432C129.285 18.5432 128.742 18.4489 128.294 18.2366C127.846 18.0479 127.492 17.7648 127.233 17.4346C126.95 17.1044 126.761 16.6799 126.643 16.2081C126.525 15.7364 126.455 15.1939 126.455 14.6514C126.455 13.9674 126.549 13.3542 126.738 12.8824C126.926 12.4107 127.162 12.0097 127.469 11.7031C127.775 11.3965 128.129 11.1842 128.53 11.0427C128.931 10.9011 129.356 10.8304 129.78 10.8304C130.417 10.8304 131.007 10.9011 131.502 11.0427C132.021 11.1842 132.469 11.3493 132.847 11.5616L133.012 11.6559L133.955 9.0614L133.837 8.99064C133.743 8.91988 133.554 8.84911 133.342 8.73118C133.106 8.61325 132.823 8.5189 132.493 8.40097C132.162 8.30662 131.762 8.21228 131.313 8.11793C130.865 8.04717 130.346 8 129.804 8C128.86 8 127.964 8.14152 127.139 8.44814C126.313 8.73118 125.605 9.17933 125.016 9.74541C124.426 10.3115 123.954 11.0191 123.601 11.8446C123.27 12.6701 123.082 13.6136 123.082 14.675C123.082 16.7978 123.648 18.4489 124.756 19.6046C125.865 20.7603 127.516 21.35 129.639 21.35C130.629 21.35 131.502 21.2557 132.233 21.067C132.988 20.8783 133.578 20.6424 134.002 20.4065L134.12 20.3358L133.224 17.7648L133.106 17.8592Z" fill="white"/>
<path d="M143.555 8.40095C143.154 9.25007 142.729 10.1228 142.258 10.9483C141.833 11.7031 141.385 12.4814 140.937 13.2362C140.489 12.4814 140.04 11.7031 139.639 10.9483C139.191 10.0992 138.767 9.25007 138.366 8.40095L138.319 8.30661H134.592L134.733 8.56606C135.441 9.9105 136.172 11.2313 136.927 12.505C137.682 13.7551 138.46 15.0288 139.286 16.2789V21.1377H142.517V16.2553C143.343 15.0052 144.121 13.7315 144.876 12.505C145.63 11.2549 146.362 9.93408 147.046 8.58965L147.187 8.33019H143.626L143.555 8.40095Z" fill="white"/>
<path d="M160.726 8.42454C160.49 9.15573 160.231 9.93408 159.924 10.7596C159.641 11.5851 159.334 12.4107 159.028 13.2362C158.721 14.0617 158.438 14.8637 158.155 15.6184C157.943 16.2081 157.73 16.727 157.518 17.1987C157.306 16.727 157.094 16.2081 156.881 15.6184L156.009 13.2362C155.702 12.4107 155.419 11.5851 155.112 10.7596C154.829 9.93408 154.546 9.15573 154.31 8.42454L154.263 8.30661H150.725L150.796 8.54248C151.055 9.32083 151.386 10.2171 151.763 11.2549C152.14 12.2692 152.541 13.3305 152.989 14.4155C153.438 15.5241 153.909 16.6563 154.405 17.7648C154.9 18.897 155.395 19.982 155.914 21.0198L155.961 21.1141H158.933L158.98 21.0198C159.499 19.982 159.995 18.8734 160.49 17.7648C160.985 16.6327 161.457 15.5241 161.882 14.4155C162.33 13.307 162.731 12.2456 163.108 11.2549C163.486 10.2407 163.816 9.34442 164.099 8.54248L164.193 8.30661H160.749L160.726 8.42454Z" fill="white"/>
<path d="M173.911 9.15576C172.873 8.49534 171.363 8.14154 169.429 8.14154C168.91 8.14154 168.274 8.16513 167.566 8.2123C166.858 8.25947 166.198 8.35382 165.561 8.47175L165.42 8.49534V21.0906H168.651V16.9157H169.382C171.316 16.9157 172.849 16.562 173.911 15.8779C174.996 15.1703 175.538 14.0382 175.538 12.4815C175.515 10.9719 174.972 9.83977 173.911 9.15576ZM171.528 13.8259C171.057 14.0854 170.326 14.2033 169.359 14.2033H168.627V10.9483C168.745 10.9483 168.863 10.9248 168.981 10.9248C169.571 10.9012 170.208 10.9012 170.703 10.9955C171.033 11.0427 171.293 11.137 171.528 11.255C171.741 11.3729 171.906 11.538 172.024 11.7267C172.142 11.939 172.189 12.1984 172.189 12.5051C172.212 13.1655 171.977 13.59 171.528 13.8259Z" fill="white"/>
<path d="M185.421 8.30661V15.2646C185.067 14.7693 184.713 14.2268 184.312 13.7079C183.817 13.0003 183.298 12.3163 182.779 11.6795C182.284 11.0426 181.765 10.4058 181.27 9.83974C180.774 9.25007 180.326 8.75475 179.902 8.37737L179.855 8.33019H177.26V21.1377H180.444V13.2598C181.411 14.3919 182.331 15.5713 183.18 16.8214C184.124 18.213 185.02 19.6282 185.846 21.0434L185.893 21.1377H188.582V8.33019H185.421V8.30661Z" fill="white"/>
</svg>
